:FULLY-SPECIFIED
:FORCE-ALL-JOINTS-BE-3DOF
:DEGREES
1
root 7.46593 15.9937 -36.7321 7.11356 1.31487 -3.66776
lfemur -40.6897 6.42258 -16.3516
ltibia 43.9106 0 0
lfoot -14.6186 8.34667 0
ltoes -11.8487 0 0
rfemur -9.89801 4.72659 30.1099
rtibia 24.1198 0 0
rfoot 0 0 0
rtoes 0 0 0
lowerback -4.29912 0.189404 0.939401
upperback -1.51886 0.185188 2.55702
thorax 0.845091 0.0960327 2.10705
lowerneck -18.6579 -5.17414 -13.3376
upperneck 13.6797 -6.63107 16.9236
head 8.38994 -2.28192 7.17028
lclavicle 6.33626e-15 1.59028e-14 0
lhumerus -35.9267 -2.97855 86.2544
lradius 27.4056 0 0
lwrist 7.30557 0 0
lhand -13.3003 -23.0211 0
lfingers 7.12502 0 0
lthumb 12.8038 6.56624 0
rclavicle 6.33626e-15 1.59028e-14 0
rhumerus -38.7688 17.4551 -84.1031
rradius 56.1989 0 0
rwrist -28.5696 0 0
rhand -33.2015 -25.7513 0
rfingers 7.12502 0 0
rthumb -6.4087 -55.6344 0
2
root 7.46313 15.9691 -36.7002 7.19082 1.03296 -3.94062
lfemur -41.4305 6.68672 -15.9533
ltibia 43.9072 -0 0
lfoot -13.8534 8.26317 -0.00761345
ltoes -11.7184 0 0
rfemur -7.93838 4.80311 30.2894
rtibia 22.0819 -0 0
rfoot 0.279191 0.338923 -0.0458772
rtoes -1.12526 0 0
lowerback -4.49193 0.2693 1.13405
upperback -1.50523 0.27476 2.62831
thorax 0.96191 0.141578 2.08211
lowerneck -18.6925 -5.17835 -13.3362
upperneck 13.6399 -6.63068 16.9355
head 8.38154 -2.27943 7.17192
lclavicle 5.1381e-15 1.30792e-14 -9.29972e-31
lhumerus -36.5293 -2.95378 86.4663
lradius 27.2136 -0 0
lwrist 7.06903 0 0
lhand -12.4128 -22.7539 0.0451344
lfingers 7.12502 -0 0
lthumb 13.6554 6.72489 0.0249971
rclavicle 5.1381e-15 1.30792e-14 -9.29972e-31
rhumerus -38.9706 17.6779 -84.4423
rradius 56.5746 -0 0
rwrist -28.6457 0 0
rhand -33.1477 -26.2348 -0.00978415
rfingers 7.12502 -0 0
rthumb -6.35678 -56.1192 -0.00947042
3
root 7.46463 15.946 -36.643 7.26454 0.747929 -4.20021
lfemur -42.1227 6.94194 -15.5793
ltibia 43.8846 -0 0
lfoot -13.108 8.18273 -0.0139875
ltoes -11.5786 0 0
rfemur -6.04289 4.86975 30.4512
rtibia 20.1376 -0 0
rfoot 0.531467 0.654824 -0.0898544
rtoes -2.23534 0 0
lowerback -4.68065 0.346248 1.31799
upperback -1.49182 0.360189 2.69786
thorax 1.07654 0.185088 2.06095
lowerneck -18.7305 -5.18114 -13.3329
upperneck 13.6082 -6.62821 16.9412
head 8.37591 -2.2762 7.17165
lclavicle 3.93889e-15 1.03106e-14 -1.78171e-30
lhumerus -37.1064 -2.93917 86.675
lradius 27.0257 -0 0
lwrist 6.83211 0 0
lhand -11.5432 -22.4927 0.0851434
lfingers 7.12502 -0 0
lthumb 14.4896 6.87974 0.0470892
rclavicle 3.93889e-15 1.03106e-14 -1.78171e-30
rhumerus -39.1752 17.8901 -84.7802
rradius 56.9222 -0 0
rwrist -28.7119 0 0
rhand -33.0923 -26.7034 -0.0188028
rfingers 7.12502 -0 0
rthumb -6.30324 -56.5891 -0.0182014
4
root 7.47018 15.9243 -36.5621 7.33473 0.46012 -4.44676
lfemur -42.7674 7.18762 -15.2286
ltibia 43.8437 -0 0
lfoot -12.3823 8.10534 -0.0192234
ltoes -11.4299 0 0
rfemur -4.21104 4.92777 30.5955
rtibia 18.2853 -0 0
rfoot 0.757616 0.948291 -0.13165
rtoes -3.32977 0 0
lowerback -4.8653 0.420238 1.49146
upperback -1.47863 0.441549 2.76568
thorax 1.18895 0.226587 2.04346
lowerneck -18.7718 -5.18254 -13.3278
upperneck 13.5844 -6.62374 16.9409
head 8.37296 -2.27227 7.16955
lclavicle 2.73979e-15 7.59749e-15 -2.55682e-30
lhumerus -37.6584 -2.93446 86.8803
lradius 26.8419 -0 0
lwrist 6.59503 0 0
lhand -10.6918 -22.2375 0.120292
lfingers 7.12502 -0 0
lthumb 15.3063 7.03075 0.0664333
rclavicle 2.73979e-15 7.59749e-15 -2.55682e-30
rhumerus -39.3821 18.0917 -85.1167
rradius 57.2425 -0 0
rwrist -28.7687 0 0
rhand -33.0352 -27.1572 -0.027061
rfingers 7.12502 -0 0
rthumb -6.24819 -57.0444 -0.0261975
5
root 7.47955 15.9041 -36.4591 7.40144 0.169875 -4.68051
lfemur -43.3661 7.42327 -14.9004
ltibia 43.785 -0 0
lfoot -11.6764 8.03097 -0.0234182
ltoes -11.2726 0 0
rfemur -2.44231 4.97835 30.7224
rtibia 16.5232 -0 0
rfoot 0.958423 1.21991 -0.171025
rtoes -4.40808 0 0
lowerback -5.04585 0.491262 1.6547
upperback -1.46568 0.518913 2.83177
thorax 1.29912 0.266099 2.0295
lowerneck -18.8163 -5.18261 -13.3208
upperneck 13.5682 -6.61735 16.9349
head 8.3726 -2.26767 7.16568
lclavicle 1.54193e-15 4.94043e-15 -3.25708e-30
lhumerus -38.1859 -2.9394 87.0825
lradius 26.6623 -0 0
lwrist 6.35803 0 0
lhand -9.85864 -21.9884 0.150843
lfingers 7.12502 -0 0
lthumb 16.1054 7.17788 0.0831841
rclavicle 1.54193e-15 4.94043e-15 -3.25708e-30
rhumerus -39.5912 18.2829 -85.4513
rradius 57.5361 -0 0
rwrist -28.8162 0 0
rhand -32.9768 -27.5963 -0.0345665
rfingers 7.12502 -0 0
rthumb -6.19174 -57.4849 -0.0334663
6
root 7.4925 15.8852 -36.3352 7.46469 -0.12246 -4.9017
lfemur -43.9199 7.64843 -14.5937
ltibia 43.7094 -0 0
lfoot -10.9902 7.95959 -0.0266648
ltoes -11.1074 0 0
rfemur -0.736174 5.02258 30.8322
rtibia 14.8499 -0 0
rfoot 1.13467 1.47026 -0.207781
rtoes -5.46979 0 0
lowerback -5.22233 0.559316 1.80794
upperback -1.45297 0.592352 2.89612
thorax 1.40704 0.30365 2.01896
lowerneck -18.8637 -5.18139 -13.3121
upperneck 13.5594 -6.60913 16.9233
head 8.37473 -2.26243 7.16011
lclavicle 3.46477e-16 2.33998e-15 -3.88436e-30
lhumerus -38.6893 -2.95371 87.2816
lradius 26.487 -0 0
lwrist 6.12134 0 0
lhand -9.044 -21.7455 0.177055
lfingers 7.12502 -0 0
lthumb 16.8867 7.32108 0.0974939
rclavicle 3.46477e-16 2.33998e-15 -3.88436e-30
rhumerus -39.8019 18.4638 -85.7839
rradius 57.8038 -0 0
rwrist -28.8548 0 0
rhand -32.917 -28.0209 -0.0413298
rfingers 7.12502 -0 0
rthumb -6.13403 -57.911 -0.0400176
7
root 7.50877 15.8676 -36.1922 7.52452 -0.416536 -5.11058
lfemur -44.4301 7.86275 -14.3079
ltibia 43.6176 -0 0
lfoot -10.3237 7.89119 -0.0290524
ltoes -10.9346 0 0
rfemur 0.907925 5.06147 30.9251
rtibia 13.2636 -0 0
rfoot 1.28714 1.69991 -0.24176
rtoes -6.51443 0 0
lowerback -5.3947 0.624399 1.95142
upperback -1.44053 0.661941 2.95873
thorax 1.51268 0.339266 2.01172
lowerneck -18.914 -5.17894 -13.3018
upperneck 13.5576 -6.59915 16.9064
head 8.37924 -2.25657 7.15292
lclavicle -8.4543e-16 -2.03297e-16 -4.44066e-30
lhumerus -39.169 -2.97712 87.4775
lradius 26.3158 -0 0
lwrist 5.88519 0 0
lhand -8.24801 -21.5089 0.199183
lfingers 7.12502 -0 0
lthumb 17.6501 7.46032 0.109513
rclavicle -8.4543e-16 -2.03297e-16 -4.44066e-30
rhumerus -40.0141 18.6347 -86.114
rradius 58.0463 -0 0
rwrist -28.8847 0 0
rhand -32.856 -28.4311 -0.047364
rfingers 7.12502 -0 0
rthumb -6.07515 -58.3226 -0.045864
8
root 7.52813 15.8512 -36.0314 7.58094 -0.711999 -5.30737
lfemur -44.898 8.06593 -14.042
ltibia 43.5102 -0 0
lfoot -9.67684 7.82571 -0.0306659
ltoes -10.7547 0 0
rfemur 2.49054 5.09593 31.0016
rtibia 11.7628 -0 0
rfoot 1.41661 1.90945 -0.272836
rtoes -7.54154 0 0
lowerback -5.56298 0.686515 2.08535
upperback -1.42834 0.727751 3.0196
thorax 1.61601 0.372973 2.00764
lowerneck -18.9669 -5.17529 -13.2899
upperneck 13.5625 -6.58749 16.8844
head 8.38605 -2.25013 7.14417
lclavicle -2.03264e-15 -2.68886e-15 -4.92811e-30
lhumerus -39.6254 -3.00935 87.6704
lradius 26.1489 -0 0
lwrist 5.64983 0 0
lhand -7.47081 -21.2787 0.21748
lfingers 7.12502 -0 0
lthumb 18.3954 7.59557 0.119387
rclavicle -2.03264e-15 -2.68886e-15 -4.92811e-30
rhumerus -40.2272 18.7956 -86.4414
rradius 58.2642 -0 0
rwrist -28.9064 0 0
rhand -32.794 -28.8269 -0.0526843
rfingers 7.12502 -0 0
rthumb -6.01523 -58.7199 -0.0510201
9
root 7.55034 15.836 -35.8543 7.63397 -1.00849 -5.49232
lfemur -45.3247 8.25776 -13.7954
ltibia 43.388 -0 0
lfoot -9.04958 7.76315 -0.0315865
ltoes -10.5683 0 0
rfemur 4.01225 5.12683 31.0621
rtibia 10.3458 -0 0
rfoot 1.52385 2.09944 -0.300918
rtoes -8.55062 0 0
lowerback -5.72715 0.745669 2.20999
upperback -1.41644 0.789856 3.07872
thorax 1.71701 0.4048 2.00661
lowerneck -19.0223 -5.1705 -13.2766
upperneck 13.574 -6.57421 16.8575
head 8.39506 -2.24313 7.13393
lclavicle -3.214e-15 -5.11615e-15 -5.34893e-30
lhumerus -40.0591 -3.05012 87.8603
lradius 25.9862 -0 0
lwrist 5.41548 0 0
lhand -6.71259 -21.0549 0.232194
lfingers 7.12502 -0 0
lthumb 19.1225 7.72681 0.127261
rclavicle -3.214e-15 -5.11615e-15 -5.34893e-30
rhumerus -40.441 18.9469 -86.7658
rradius 58.4582 -0 0
rwrist -28.92 0 0
rhand -32.7309 -29.2085 -0.0573085
rfingers 7.12502 -0 0
rthumb -5.95438 -59.103 -0.0555027
10
root 7.57515 15.8219 -35.6624 7.68365 -1.30566 -5.66565
lfemur -45.7116 8.43808 -13.5674
ltibia 43.2517 -0 0
lfoot -8.44189 7.70345 -0.0318914
ltoes -10.3757 0 0
rfemur 5.47362 5.15491 31.1069
rtibia 9.01096 -0 0
rfoot 1.60962 2.27043 -0.325944
rtoes -9.54123 0 0
lowerback -5.8872 0.801869 2.32555
upperback -1.40482 0.848329 3.1361
thorax 1.81566 0.434775 2.00851
lowerneck -19.08 -5.1646 -13.2618
upperneck 13.5918 -6.5594 16.826
head 8.40616 -2.23561 7.12228
lclavicle -4.38837e-15 -7.48461e-15 -5.70545e-30
lhumerus -40.4704 -3.09913 88.0471
lradius 25.8279 -0 0
lwrist 5.18237 0 0
lhand -5.97349 -20.8375 0.243567
lfingers 7.12502 -0 0
lthumb 19.8312 7.85402 0.133277
rclavicle -4.38837e-15 -7.48461e-15 -5.70545e-30
rhumerus -40.6552 19.0885 -87.0869
rradius 58.6292 -0 0
rwrist -28.9258 0 0
rhand -32.667 -29.576 -0.0612559
rfingers 7.12502 -0 0
rthumb -5.89271 -59.4721 -0.0593307
11
root 7.60232 15.809 -35.4573 7.73 -1.60314 -5.82761
lfemur -46.0597 8.60677 -13.3571
ltibia 43.1021 -0 0
lfoot -7.85375 7.64659 -0.0316541
ltoes -10.1775 0 0
rfemur 6.87524 5.18086 31.1366
rtibia 7.75675 -0 0
rfoot 1.6747 2.423 -0.347882
rtoes -10.5129 0 0
lowerback -6.0431 0.85513 2.43226
upperback -1.3935 0.903242 3.19174
thorax 1.91193 0.462928 2.01321
lowerneck -19.1399 -5.15766 -13.2457
upperneck 13.6155 -6.54312 16.79
head 8.41927 -2.22759 7.10929
lclavicle -5.5546e-15 -9.79369e-15 -6.00012e-30
lhumerus -40.8597 -3.15609 88.2308
lradius 25.6739 -0 0
lwrist 4.95074 0 0
lhand -5.25366 -20.6267 0.251839
lfingers 7.12502 -0 0
lthumb 20.5214 7.97717 0.137572
rclavicle -5.5546e-15 -9.79369e-15 -6.00012e-30
rhumerus -40.8694 19.2208 -87.4044
rradius 58.7777 -0 0
rwrist -28.9243 0 0
rhand -32.6024 -29.9294 -0.0645481
rfingers 7.12502 -0 0
rthumb -5.83033 -59.8271 -0.0625246
